<svg width="43" height="43" viewBox="0 0 43 43" fill="none" xmlns="http://www.w3.org/2000/svg">
<g filter="url(#filter0_d_29_3314)">
<rect x="4" width="35" height="35" rx="4" fill="#FAFAFA"/>
<path d="M21.4551 21.5999C23.5639 21.5999 25.2734 19.9881 25.2734 17.9999C25.2734 16.0117 23.5639 14.3999 21.4551 14.3999C19.3463 14.3999 17.6367 16.0117 17.6367 17.9999C17.6367 19.9881 19.3463 21.5999 21.4551 21.5999Z" stroke="#1C274C" stroke-width="2"/>
<path d="M11.3866 16.367C11.9881 16.7233 12.3751 17.3303 12.3751 17.9999C12.3751 18.6696 11.9881 19.2766 11.3866 19.6328C10.9773 19.8752 10.7136 20.069 10.526 20.2996C10.115 20.8046 9.93366 21.4428 10.0218 22.0739C10.0879 22.5472 10.3844 23.0314 10.9774 23.9999C11.5705 24.9683 11.867 25.4525 12.2687 25.7431C12.8043 26.1306 13.4813 26.3016 14.1506 26.2186C14.4561 26.1806 14.7659 26.0622 15.1932 25.8493C15.8213 25.5364 16.5724 25.5239 17.1876 25.8588C17.8028 26.1937 18.1668 26.8132 18.1933 27.4824C18.2114 27.9378 18.2576 28.25 18.3755 28.5185C18.6339 29.1065 19.1294 29.5738 19.7531 29.8174C20.221 30 20.814 30 22.0001 30C23.1862 30 23.7792 30 24.247 29.8174C24.8707 29.5738 25.3663 29.1065 25.6247 28.5185C25.7426 28.25 25.7888 27.9378 25.8068 27.4825C25.8333 26.8132 26.1973 26.1937 26.8126 25.8588C27.4277 25.524 28.1788 25.5365 28.8068 25.8494C29.2342 26.0623 29.544 26.1808 29.8495 26.2187C30.5188 26.3018 31.1958 26.1307 31.7314 25.7432C32.1331 25.4527 32.4296 24.9684 33.0228 24C33.2867 23.5688 33.492 23.2337 33.6443 22.9526M32.6134 19.633C32.012 19.2767 31.6251 18.6697 31.625 18.0001C31.625 17.3304 32.012 16.7233 32.6134 16.367C33.0228 16.1246 33.2863 15.9308 33.474 15.7003C33.8849 15.1953 34.0663 14.5571 33.9782 13.926C33.9122 13.4527 33.6156 12.9685 33.0225 12.0001C32.4295 11.0316 32.133 10.5474 31.7313 10.2568C31.1957 9.86929 30.5187 9.69828 29.8493 9.78136C29.5439 9.81929 29.2341 9.93768 28.8068 10.1506C28.1787 10.4636 27.4276 10.476 26.8125 10.1412C26.1973 9.80628 25.8333 9.18684 25.8068 8.51764C25.7888 8.06222 25.7426 7.75002 25.6247 7.48156C25.3663 6.8935 24.8707 6.42628 24.247 6.18269C23.7792 6 23.1862 6 22.0001 6C20.814 6 20.221 6 19.7531 6.18269C19.1294 6.42628 18.6339 6.8935 18.3755 7.48156C18.2576 7.75 18.2114 8.06218 18.1933 8.51753C18.1668 9.18679 17.8028 9.80629 17.1876 10.1412C16.5724 10.476 15.8213 10.4635 15.1933 10.1506C14.766 9.93763 14.4562 9.81923 14.1506 9.7813C13.4813 9.69822 12.8043 9.86923 12.2687 10.2567C11.867 10.5473 11.5705 11.0316 10.9774 12C10.7134 12.4311 10.5082 12.7663 10.3559 13.0473" stroke="#1C274C" stroke-width="2" stroke-linecap="round"/>
</g>
<defs>
<filter id="filter0_d_29_3314" x="0" y="0" width="43" height="43" filterUnits="userSpaceOnUse" color-interpolation-filters="sRGB">
<feFlood flood-opacity="0" result="BackgroundImageFix"/>
<feColorMatrix in="SourceAlpha" type="matrix" values="0 0 0 0 0 0 0 0 0 0 0 0 0 0 0 0 0 0 127 0" result="hardAlpha"/>
<feOffset dy="4"/>
<feGaussianBlur stdDeviation="2"/>
<feComposite in2="hardAlpha" operator="out"/>
<feColorMatrix type="matrix" values="0 0 0 0 0 0 0 0 0 0 0 0 0 0 0 0 0 0 0.25 0"/>
<feBlend mode="normal" in2="BackgroundImageFix" result="effect1_dropShadow_29_3314"/>
<feBlend mode="normal" in="SourceGraphic" in2="effect1_dropShadow_29_3314" result="shape"/>
</filter>
</defs>
</svg>
